Coordinates
version=1
nRows=25
nColumns=23
inDegrees=yes

Units are S.I. units (second, meters, Newtons, ...)
If the header above contains a line with 'inDegrees', this indicates whether rotational values are in degrees (yes) or radians (no).

endheader
time	pelvis_tilt	pelvis_list	pelvis_rotation	pelvis_tx	pelvis_ty	pelvis_tz	hip_flexion_r	hip_adduction_r	hip_rotation_r	knee_angle_r	knee_angle_r_beta	ankle_angle_r	subtalar_angle_r	mtp_angle_r	hip_flexion_l	hip_adduction_l	hip_rotation_l	knee_angle_l	knee_angle_l_beta	ankle_angle_l	subtalar_angle_l	mtp_angle_l
      0.00000000	    -14.40825975	      5.70197195	     -1.04050771	      2.30983067	      0.93382573	      1.03614679	    -10.67821058	     -4.69856311	     -3.76933807	     12.78982316	      0.22322452	    -15.80138078	      0.16207871	      0.00000000	     49.91291003	      7.05605446	     -3.55637101	     75.21858461	      1.31281196	     -1.75033743	    -19.84650000	      0.00000000
      0.00666667	    -14.60935340	      5.18260576	     -0.61685874	      2.31097205	      0.93656774	      1.03592189	    -11.21674043	     -4.15955086	     -4.99412539	     14.26264200	      0.24893006	    -15.78635248	     -1.10764421	      0.00000000	     50.12457528	      6.76409763	     -3.25700020	     70.94216355	      1.23817433	     -1.47101373	    -19.54357928	      0.00000000
      0.01333333	    -14.79116444	      4.82674399	     -0.31038312	      2.31206895	      0.93913426	      1.03570931	    -11.73150686	     -3.84132056	     -6.07774033	     15.81904779	      0.27609447	    -15.65534585	     -2.19158907	      0.00000000	     50.07000729	      6.61561548	     -3.06661667	     66.34503709	      1.15793934	     -1.20944673	    -19.27820486	      0.00000000
      0.02000000	    -14.92117143	      4.46312216	     -0.00823993	      2.31311707	      0.94143345	      1.03547590	    -12.29881864	     -3.51990976	     -7.07867040	     17.40964255	      0.30385558	    -15.43952320	     -3.21404381	      0.00000000	     49.76610852	      6.46471533	     -2.89944974	     61.55796197	      1.07438912	     -0.89480937	    -18.67723593	      0.00000000
      0.02666667	    -14.88098116	      4.17195581	      0.16114281	      2.31410601	      0.94359624	      1.03529854	    -12.93020105	     -3.33414187	     -7.92751209	     19.23869400	      0.33577855	    -15.12901378	     -4.08933075	      0.00000000	     49.09159170	      6.27023030	     -2.93603693	     56.58992711	      0.98768055	     -0.59406266	    -17.84591048	      0.00000000
      0.03333333	    -14.71875626	      3.86327393	      0.27441877	      2.31502791	      0.94555059	      1.03509091	    -13.58139419	     -3.17567806	     -8.68264504	     21.30125023	      0.37177695	    -14.68534790	     -4.76572044	      0.00000000	     48.13303796	      6.02381634	     -3.06710279	     51.50743038	      0.89897425	     -0.30954160	    -16.56197280	      0.00000000
      0.04000000	    -14.52324204	      3.49157175	      0.36302794	      2.31584296	      0.94705649	      1.03478906	    -14.13627297	     -2.97826472	     -9.24367052	     23.64297540	      0.41264777	    -14.30821075	     -5.67978945	      0.00000000	     47.05747312	      5.72183344	     -3.25569460	     46.44252850	      0.81057504	     -0.01997869	    -14.84284293	      0.00000000
      0.04666667	    -14.30107258	      3.05549531	      0.47530145	      2.31655350	      0.94814057	      1.03433851	    -14.59752771	     -2.72827579	     -9.66955376	     26.25925857	      0.45831052	    -13.87837202	     -6.75221875	      0.00000000	     45.86262872	      5.42027204	     -3.42005480	     41.38100163	      0.72223473	      0.19264608	    -12.82079690	      0.00000000
      0.05333333	    -13.91457484	      2.66169332	      0.43512131	      2.31718270	      0.94896812	      1.03395098	    -15.03855523	     -2.60994498	     -9.92751440	     29.23470068	      0.51024178	    -13.51995867	     -7.75572638	      0.00000000	     44.42657163	      5.05498679	     -3.83425306	     36.41034058	      0.63548032	      0.40934884	    -10.53060684	      0.00000000
      0.06000000	    -13.40124363	      2.34087322	      0.34776274	      2.31779376	      0.94945435	      1.03346278	    -15.46351569	     -2.62991929	    -10.09667546	     32.52501171	      0.56766854	    -13.18618504	     -8.81163686	      0.00000000	     42.80669511	      4.77351903	     -4.38321096	     31.59178994	      0.55138075	      0.59137355	     -8.02286184	      0.00000000
      0.06666667	    -12.82781169	      2.01923975	      0.23130389	      2.31837335	      0.94950050	      1.03299817	    -15.82808259	     -2.67378092	    -10.15982318	     36.05229582	      0.62923126	    -12.93722819	     -9.88581532	      0.00000000	     41.11859272	      4.53578898	     -4.87646541	     27.04544980	      0.47203215	      0.79421508	     -5.51044003	      0.00000000
      0.07333333	    -12.15735708	      1.73083287	      0.14091114	      2.31886133	      0.94913639	      1.03248631	    -16.16589123	     -2.74742287	    -10.14134247	     39.82100143	      0.69500759	    -12.73717548	    -11.11305843	      0.00000000	     39.35957474	      4.40869568	     -5.22919644	     22.86681437	      0.39910120	      0.99800766	     -3.11879485	      0.00000000
      0.08000000	    -11.68606925	      1.41904466	      0.06189351	      2.31915519	      0.94800562	      1.03198035	    -16.12574879	     -2.77515129	     -9.98113256	     43.85677654	      0.76544515	    -12.67034346	    -12.61927149	      0.00000000	     37.91796109	      4.30700094	     -5.34465078	     19.22177433	      0.33548325	      1.12868043	     -1.21196546	      0.00000000
      0.08666667	    -11.08167381	      1.21293133	      0.01528058	      2.31936276	      0.94658112	      1.03154553	    -16.13423334	     -2.85574691	     -9.76138155	     48.02507030	      0.83819560	    -12.70352915	    -14.14320938	      0.00000000	     36.39637839	      4.32454823	     -5.35564664	     16.07785555	      0.28061152	      1.22047800	      0.31618429	      0.00000000
      0.09333333	    -10.48194334	      1.07787692	      0.02740950	      2.31948522	      0.94469410	      1.03121912	    -16.04128374	     -2.94344959	     -9.53813903	     52.31356895	      0.91304402	    -12.79058762	    -15.67414574	      0.00000000	     35.01015823	      4.40806426	     -5.25505903	     13.59245651	      0.23723312	      1.27712224	      1.41372503	      0.00000000
      0.10000000	     -9.82312018	      1.05535471	      0.12310417	      2.31951691	      0.94251105	      1.03093981	    -15.94853587	     -3.06713309	     -9.34880700	     56.64318313	      0.98861004	    -12.93891390	    -17.18259201	      0.00000000	     33.60738760	      4.64222568	     -4.83093686	     11.60760704	      0.20259096	      1.11549525	      1.68751508	      0.00000000
      0.10666667	     -9.31926603	      1.07391612	      0.27176787	      2.31940571	      0.93968490	      1.03077736	    -15.58503528	     -3.17759174	     -9.18396821	     61.08082131	      1.06606144	    -12.97957854	    -18.47727905	      0.00000000	     32.69143934	      4.81258783	     -4.82204696	     10.69073651	      0.18658855	      1.20560687	      2.22107390	      0.00000000
      0.11333333	     -8.75566630	      1.22787956	      0.44628258	      2.31928828	      0.93663078	      1.03070250	    -15.23593187	     -3.36950687	     -9.02924215	     65.49164132	      1.14304477	    -13.09115138	    -19.67270532	      0.00000000	     31.77989515	      5.08767871	     -4.85083742	     10.32993667	      0.18029141	      1.07009826	      2.34655412	      0.00000000
      0.12000000	     -8.18048110	      1.48659076	      0.70984480	      2.31913136	      0.93321297	      1.03063687	    -14.86403512	     -3.62061585	     -8.98384322	     69.86975096	      1.21945720	    -13.05493616	    -20.67155363	      0.00000000	     30.99950512	      5.46801812	     -4.84588060	     10.66363934	      0.18611562	      0.95605630	      2.12866378	      0.00000000
      0.12666667	     -7.75805074	      1.77612934	      0.94545298	      2.31892030	      0.92932211	      1.03071689	    -14.24436847	     -3.89283687	     -8.90662659	     74.23308948	      1.29561183	    -13.11406869	    -21.40594380	      0.00000000	     30.48686776	      5.82943198	     -4.83830272	     11.58774020	      0.20224422	      0.70316678	      1.52243974	      0.00000000
      0.13333333	     -7.22094776	      2.18451315	      1.28608163	      2.31868035	      0.92516427	      1.03072681	    -13.74410415	     -4.25955683	     -8.96860396	     78.50444826	      1.37016110	    -12.95187631	    -21.90590973	      0.00000000	     29.97617842	      6.33202220	     -4.79423799	     13.12186280	      0.22901971	      0.50604772	      0.74844490	      0.00000000
      0.14000000	     -7.00773997	      2.51768645	      1.60552053	      2.31827396	      0.92030031	      1.03079141	    -12.77064673	     -4.55556987	     -8.95315384	     82.79347388	      1.44501872	    -12.82463128	    -22.26404619	      0.00000000	     30.01073475	      6.73439428	     -4.69061649	     15.36846261	      0.26823027	      0.49129955	     -0.52989345	      0.00000000
      0.14666667	     -7.01510790	      2.73151411	      2.03017627	      2.31764680	      0.91482285	      1.03076882	    -11.46707210	     -4.69368987	     -8.97974895	     87.03933212	      1.51912292	    -12.52993873	    -22.33873407	      0.00000000	     30.44932333	      7.08107556	     -4.38752413	     18.21623073	      0.31793320	      0.64009365	     -1.88956332	      0.00000000
      0.15333333	     -6.92048369	      3.04929399	      2.43001780	      2.31695995	      0.90919295	      1.03075614	    -10.22374294	     -5.00723395	     -9.02936955	     91.18741570	      1.59152064	    -12.24535942	    -22.31947097	      0.00000000	     30.80225116	      7.53367634	     -4.14687863	     21.36869665	      0.37295411	      1.07599728	     -3.33504398	      0.00000000
      0.16000000	     -6.95676886	      3.31097667	      2.85660728	      2.31605115	      0.90319280	      1.03068492	     -8.73216291	     -5.30728042	     -9.08299366	     95.26124983	      1.66262246	    -11.88087262	    -22.12508970	      0.00000000	     31.35400192	      7.98170215	     -3.83094014	     24.83441274	      0.43344227	      1.89935049	     -4.79591069	      0.00000000
